<svg xmlns="http://www.w3.org/2000/svg" viewBox="0 0 110.39 54.82"><defs><style>.cls-1{fill:#02539b;}</style></defs><g id="Layer_2" data-name="Layer 2"><g id="Layer_3" data-name="Layer 3"><path class="cls-1" d="M0,28S24-1,62,0c0,0,29,2,48,23,0,0-28.5-20.5-47.5-14.5,0,0-13,9-10,17,0,0,3,17,18,14,0,0-10,11-28-7,0,0-3-5,0-19,0,0-19,6-24,14Z"/><path class="cls-1" d="M62.39,54.8c-38,1-62-28-62-28l18.5.5c5,8,24,14,24,14-.07-.34-.13-.66-.19-1A10.92,10.92,0,0,0,51,42a38.43,38.43,0,0,0,10.39,3.21c.9.71,1.48,1.12,1.48,1.12,19,6,47.5-14.5,47.5-14.5C91.39,52.8,62.39,54.8,62.39,54.8Z"/></g></g></svg>