<svg width="83" height="20" viewBox="0 0 83 20" fill="none" xmlns="http://www.w3.org/2000/svg">
<path d="M51.4919 9.94296C51.4919 11.6142 50.134 12.8813 48.3375 12.8813H46.0066V7.00464H48.3375C50.132 7.00464 51.4919 8.27173 51.4919 9.94296ZM50.1991 9.94296C50.1991 8.27173 49.3832 7.17254 48.1478 7.17254H47.2668V12.7134H48.1478C49.3832 12.7134 50.1991 11.6142 50.1991 9.94296Z" fill="#FEFDFD"/>
<path d="M57.4462 12.8812H56.0883C55.9313 12.7796 55.7914 12.5707 55.7091 12.395L54.943 10.7082C54.8683 10.5578 54.7457 10.4309 54.5638 10.3645H53.6655V12.8831H52.4053V7.00647H54.8587C56.0864 7.00647 57.0249 7.71128 57.0249 8.69332C57.0249 9.56603 56.2837 10.2045 55.2533 10.3392C55.7799 10.4309 56.2415 10.6672 56.4388 11.1201L56.9731 12.2447C57.0957 12.5043 57.2777 12.766 57.4424 12.8831L57.4462 12.8812ZM53.6655 10.1947H54.5638C55.2724 10.1947 55.734 9.59922 55.734 8.68356C55.734 7.76789 55.2724 7.17242 54.5638 7.17242H53.6655V10.1947Z" fill="#FEFDFD"/>
<path d="M59.7771 12.1686C59.7771 11.7411 60.1065 11.3955 60.5355 11.3955C60.9646 11.3955 61.2767 11.7391 61.2767 12.1686C61.2767 12.5982 60.955 12.9242 60.5355 12.9242C60.1161 12.9242 59.7771 12.5962 59.7771 12.1686Z" fill="#FEFDFD"/>
<path d="M66.0036 9.94296L65.4846 10.4213V12.8813H64.2244V7.00464H65.4846V10.1616L68.9186 7.00464H69.2059L66.9 9.12101L69.4032 12.8813H67.9457L66.0017 9.94296H66.0036Z" fill="#FEFDFD"/>
<path d="M73.1761 11.2958H70.6059L69.9298 12.8831H69.7L72.2281 7.00647H72.6648L75.1852 12.8831H73.8503L73.1742 11.2958H73.1761ZM73.111 11.1279L71.9006 8.28137L70.6825 11.1279H73.111Z" fill="#FEFDFD"/>
<path d="M75.2275 9.95269C75.2275 8.24827 76.5529 6.92261 78.3149 6.92261C79.6326 6.92261 80.5787 7.67818 80.5787 8.5177H80.3968C80.3968 7.8207 79.7303 7.23303 78.6999 7.23303C77.3649 7.23303 76.5184 8.24827 76.5184 9.94488C76.5184 11.6415 77.3668 12.6567 78.6922 12.6567C79.4909 12.6567 80.1095 12.2877 80.4389 11.6923H80.6285C80.2742 12.4224 79.4104 12.9691 78.3302 12.9691C76.6084 12.9691 75.2256 11.6923 75.2256 9.95464L75.2275 9.95269Z" fill="#FEFDFD"/>
<path d="M81.4866 7.00464H82.7468V12.8813H81.4866V7.00464Z" fill="#FEFDFD"/>
<path d="M36.6524 11.1964C34.8176 12.5065 32.8832 13.6369 30.8224 14.5369C28.3613 15.6127 25.8044 16.3097 23.125 16.4581C20.5892 16.5986 18.1166 16.2082 15.7053 15.4057C12.1238 14.2148 8.92339 12.3093 5.95859 9.96643C5.68471 9.74971 5.80154 9.64038 5.99881 9.48614C8.25497 7.71925 10.6529 6.19445 13.2634 5.03083C13.6043 4.87855 13.9509 4.73798 14.2938 4.5935C13.3706 6.3194 13.0603 8.10777 13.5238 9.99767C13.9931 11.9071 15.0943 13.3518 16.7625 14.3358C19.1719 15.7552 22.2612 15.3101 23.8145 14.0196C23.5942 14.043 23.372 14.0566 23.1441 14.0566C23.035 14.0566 22.9258 14.0527 22.8166 14.0469C22.4968 14.0547 22.1769 14.0391 21.859 13.9864C19.9897 13.6759 18.5667 12.4362 17.8465 10.8899C17.498 10.1909 17.3026 9.41 17.3026 8.58805C17.3026 8.10386 17.3696 7.6353 17.4961 7.1882C17.973 5.2905 19.3979 3.72274 21.2959 3.19756C22.4374 2.88322 23.5731 3.03941 24.7031 3.19365C28.1717 3.66808 31.3472 4.98593 34.3426 6.78601C34.7314 7.0203 35.1164 7.26434 35.4956 7.5123C36.1314 7.95353 36.5911 8.27372 36.6696 8.33424C36.683 8.34401 36.7252 8.37915 36.7903 8.39477C36.8229 8.40258 36.8612 8.40648 36.9052 8.40258C36.7348 8.24053 36.5643 8.07653 36.3919 7.91448H36.3958C36.3785 7.89887 36.3613 7.88325 36.3421 7.86763C36.2483 7.78368 36.1832 7.71925 36.1717 7.70753C36.1142 7.65287 35.9495 7.50449 35.4994 7.12573C35.4783 7.1062 35.4573 7.08668 35.4343 7.06911C32.5289 4.57788 29.3534 2.54546 25.7642 1.22956C23.2054 0.292426 20.5643 -0.141 17.8446 0.0405703C15.2533 0.212379 12.7903 0.930852 10.4384 2.02808C6.54274 3.84379 3.14317 6.38187 0.145799 9.49005C-0.047641 9.68919 -0.0495562 9.81414 0.145799 10.0133C0.862103 10.7415 1.58798 11.4561 2.356 12.1297C5.29782 14.7029 8.51353 16.8134 12.164 18.1937C14.8147 19.1953 17.5516 19.6619 20.3747 19.4628C23.0311 19.2753 25.5478 18.5042 27.9572 17.364C30.9641 15.9407 33.6627 14.0449 36.1506 11.8212C36.4015 11.5967 36.6428 11.3604 36.888 11.13C36.7807 11.1183 36.7137 11.1535 36.6524 11.1984V11.1964Z" fill="#FEFDFD"/>
</svg>
