<svg width="294" height="51" viewBox="0 0 294 51" fill="none" xmlns="http://www.w3.org/2000/svg">
<g clip-path="url(#clip0_1597_5382)">
<path d="M145.099 26.9782C145.099 31.1764 141.669 34.3593 137.129 34.3593H131.24V19.597H137.129C141.664 19.597 145.099 22.78 145.099 26.9782ZM141.833 26.9782C141.833 22.78 139.772 20.0188 136.65 20.0188H134.424V33.9376H136.65C139.772 33.9376 141.833 31.1764 141.833 26.9782Z" fill="#00529A"/>
<path d="M160.144 34.3593H156.713C156.317 34.1043 155.963 33.5795 155.755 33.1381L153.82 28.9007C153.631 28.5231 153.321 28.2043 152.861 28.0375H150.592V34.3642H147.408V19.6019H153.607C156.708 19.6019 159.08 21.3724 159.08 23.8393C159.08 26.0316 157.207 27.6354 154.603 27.9738C155.934 28.2043 157.1 28.7977 157.599 29.9355L158.949 32.7605C159.259 33.4128 159.718 34.0699 160.135 34.3642L160.144 34.3593ZM150.592 27.6108H152.861C154.652 27.6108 155.818 26.115 155.818 23.8148C155.818 21.5147 154.652 20.0188 152.861 20.0188H150.592V27.6108Z" fill="#00529A"/>
<path d="M166.034 32.5692C166.034 31.4952 166.866 30.6271 167.95 30.6271C169.034 30.6271 169.823 31.4903 169.823 32.5692C169.823 33.6482 169.01 34.4672 167.95 34.4672C166.89 34.4672 166.034 33.6433 166.034 32.5692Z" fill="#00529A"/>
<path d="M181.766 26.9782L180.454 28.1798V34.3593H177.27V19.597H180.454V27.5275L189.131 19.597H189.857L184.03 24.9134L190.355 34.3593H186.672L181.761 26.9782H181.766Z" fill="#00529A"/>
<path d="M199.888 30.3769H193.394L191.686 34.3642H191.105L197.493 19.6019H198.596L204.964 34.3642H201.591L199.883 30.3769H199.888ZM199.723 29.9551L196.665 22.8045L193.587 29.9551H199.723Z" fill="#00529A"/>
<path d="M205.071 27.0027C205.071 22.7211 208.419 19.3911 212.871 19.3911C216.201 19.3911 218.591 21.2891 218.591 23.398H218.132C218.132 21.6471 216.448 20.1709 213.844 20.1709C210.471 20.1709 208.332 22.7211 208.332 26.9831C208.332 31.245 210.476 33.7953 213.825 33.7953C215.843 33.7953 217.406 32.8684 218.238 31.3725H218.717C217.822 33.2068 215.639 34.58 212.91 34.58C208.56 34.58 205.066 31.3725 205.066 27.0076L205.071 27.0027Z" fill="#00529A"/>
<path d="M220.885 19.597H224.069V34.3593H220.885V19.597Z" fill="#00529A"/>
<path d="M107.606 30.1271C102.97 33.418 98.0824 36.2577 92.8755 38.5186C86.6573 41.2209 80.197 42.9718 73.4271 43.3445C67.0201 43.6977 60.7728 42.7168 54.6804 40.7011C45.6312 37.7094 37.5451 32.9227 30.0541 27.0374C29.3621 26.493 29.6573 26.2183 30.1557 25.8309C35.8562 21.3924 41.9148 17.562 48.5105 14.639C49.3719 14.2565 50.2478 13.9033 51.114 13.5404C48.7815 17.8759 47.9976 22.3684 49.1686 27.1158C50.3542 31.9123 53.1367 35.5416 57.3516 38.0134C63.4392 41.5789 71.2447 40.4607 75.1692 37.2189C74.6127 37.2778 74.0514 37.3121 73.4755 37.3121C73.1997 37.3121 72.9239 37.3023 72.648 37.2876C71.8399 37.3072 71.0318 37.268 70.2285 37.1355C65.5055 36.3557 61.91 33.2414 60.0905 29.3571C59.2098 27.6014 58.7162 25.6396 58.7162 23.5748C58.7162 22.3585 58.8856 21.1815 59.205 20.0584C60.4099 15.2913 64.0102 11.353 68.8058 10.0338C71.6899 9.24414 74.5595 9.6365 77.4146 10.0239C86.1782 11.2157 94.2014 14.5262 101.77 19.0481C102.752 19.6366 103.725 20.2496 104.683 20.8725C106.29 21.9809 107.451 22.7852 107.649 22.9373C107.683 22.9618 107.79 23.0501 107.954 23.0893C108.036 23.1089 108.133 23.1187 108.245 23.1089C107.814 22.7019 107.383 22.2899 106.948 21.8828H106.957C106.914 21.8436 106.87 21.8043 106.822 21.7651C106.585 21.5542 106.42 21.3924 106.391 21.3629C106.246 21.2256 105.83 20.8529 104.693 19.9014C104.639 19.8524 104.586 19.8033 104.528 19.7592C97.1872 13.5012 89.1639 8.39568 80.0954 5.09011C73.6304 2.73599 66.9572 1.64721 60.0857 2.10332C53.5384 2.53491 47.3153 4.33973 41.3728 7.09601C31.5301 11.6571 22.9406 18.0329 15.3674 25.8407C14.8787 26.3409 14.8738 26.6548 15.3674 27.1551C17.1772 28.9844 19.0113 30.7794 20.9517 32.4714C28.3846 38.9355 36.5095 44.2371 45.7329 47.7046C52.4302 50.2205 59.3453 51.3927 66.4781 50.8924C73.19 50.4216 79.5486 48.4844 85.6362 45.6202C93.2336 42.0449 100.052 37.2827 106.338 31.6966C106.972 31.1325 107.582 30.5391 108.201 29.9604C107.93 29.931 107.761 30.0192 107.606 30.132V30.1271Z" fill="#00529A"/>
</g>
<defs>
<clipPath id="clip0_1597_5382">
<rect width="211" height="49" fill="white" transform="translate(15 2)"/>
</clipPath>
</defs>
</svg>
