<svg width="211" height="49" viewBox="0 0 211 49" fill="none" xmlns="http://www.w3.org/2000/svg">
<g clip-path="url(#clip0_1615_5383)">
<path d="M130.099 24.9782C130.099 29.1764 126.669 32.3593 122.129 32.3593H116.24V17.597H122.129C126.664 17.597 130.099 20.78 130.099 24.9782ZM126.833 24.9782C126.833 20.78 124.772 18.0188 121.65 18.0188H119.424V31.9376H121.65C124.772 31.9376 126.833 29.1764 126.833 24.9782Z" fill="#00529A"/>
<path d="M145.144 32.3593H141.713C141.317 32.1043 140.963 31.5795 140.755 31.1381L138.82 26.9007C138.631 26.5231 138.321 26.2043 137.861 26.0375H135.592V32.3642H132.408V17.6019H138.607C141.708 17.6019 144.08 19.3724 144.08 21.8393C144.08 24.0316 142.207 25.6354 139.603 25.9738C140.934 26.2043 142.1 26.7977 142.599 27.9355L143.949 30.7605C144.259 31.4128 144.718 32.0699 145.135 32.3642L145.144 32.3593ZM135.592 25.6108H137.861C139.652 25.6108 140.818 24.115 140.818 21.8148C140.818 19.5147 139.652 18.0188 137.861 18.0188H135.592V25.6108Z" fill="#00529A"/>
<path d="M151.034 30.5692C151.034 29.4952 151.866 28.6271 152.95 28.6271C154.034 28.6271 154.823 29.4903 154.823 30.5692C154.823 31.6482 154.01 32.4672 152.95 32.4672C151.89 32.4672 151.034 31.6433 151.034 30.5692Z" fill="#00529A"/>
<path d="M166.766 24.9782L165.454 26.1798V32.3593H162.27V17.597H165.454V25.5275L174.131 17.597H174.857L169.03 22.9134L175.355 32.3593H171.672L166.761 24.9782H166.766Z" fill="#00529A"/>
<path d="M184.888 28.3769H178.394L176.686 32.3642H176.105L182.493 17.6019H183.596L189.964 32.3642H186.591L184.883 28.3769H184.888ZM184.723 27.9551L181.665 20.8045L178.587 27.9551H184.723Z" fill="#00529A"/>
<path d="M190.071 25.0027C190.071 20.7211 193.419 17.3911 197.871 17.3911C201.201 17.3911 203.591 19.2891 203.591 21.398H203.132C203.132 19.6471 201.448 18.1709 198.844 18.1709C195.471 18.1709 193.332 20.7211 193.332 24.9831C193.332 29.245 195.476 31.7953 198.825 31.7953C200.843 31.7953 202.406 30.8684 203.238 29.3725H203.717C202.822 31.2068 200.639 32.58 197.91 32.58C193.56 32.58 190.066 29.3725 190.066 25.0076L190.071 25.0027Z" fill="#00529A"/>
<path d="M205.885 17.597H209.069V32.3593H205.885V17.597Z" fill="#00529A"/>
<path d="M92.6058 28.1271C87.9699 31.418 83.0824 34.2577 77.8755 36.5186C71.6573 39.2209 65.197 40.9718 58.4271 41.3445C52.0201 41.6977 45.7728 40.7168 39.6804 38.7011C30.6312 35.7094 22.5451 30.9227 15.0541 25.0374C14.3621 24.493 14.6573 24.2183 15.1557 23.8309C20.8562 19.3924 26.9148 15.562 33.5105 12.639C34.3719 12.2565 35.2478 11.9033 36.114 11.5404C33.7815 15.8759 32.9976 20.3684 34.1686 25.1158C35.3542 29.9123 38.1367 33.5416 42.3516 36.0134C48.4392 39.5789 56.2447 38.4607 60.1692 35.2189C59.6127 35.2778 59.0514 35.3121 58.4755 35.3121C58.1997 35.3121 57.9239 35.3023 57.648 35.2876C56.8399 35.3072 56.0318 35.268 55.2285 35.1355C50.5055 34.3557 46.91 31.2414 45.0905 27.3571C44.2098 25.6014 43.7162 23.6396 43.7162 21.5748C43.7162 20.3585 43.8856 19.1815 44.205 18.0584C45.4099 13.2913 49.0102 9.35304 53.8058 8.03375C56.6899 7.24414 59.5595 7.6365 62.4146 8.02395C71.1782 9.21572 79.2014 12.5262 86.7698 17.0481C87.7522 17.6366 88.7248 18.2496 89.683 18.8725C91.2896 19.9809 92.451 20.7852 92.6494 20.9373C92.6832 20.9618 92.7897 21.0501 92.9542 21.0893C93.0365 21.1089 93.1333 21.1187 93.2446 21.1089C92.8139 20.7019 92.3832 20.2899 91.9477 19.8828H91.9574C91.9138 19.8436 91.8703 19.8043 91.8219 19.7651C91.5847 19.5542 91.4202 19.3924 91.3912 19.3629C91.246 19.2256 90.8298 18.8529 89.6927 17.9014C89.6394 17.8524 89.5862 17.8033 89.5281 17.7592C82.1872 11.5012 74.1639 6.39568 65.0954 3.09011C58.6304 0.735987 51.9572 -0.352793 45.0857 0.103317C38.5384 0.534906 32.3153 2.33973 26.3728 5.09601C16.5301 9.65712 7.94062 16.0329 0.367403 23.8407C-0.121347 24.3409 -0.126186 24.6548 0.367403 25.1551C2.17723 26.9844 4.01126 28.7794 5.95174 30.4714C13.3846 36.9355 21.5095 42.2371 30.7329 45.7046C37.4302 48.2205 44.3453 49.3927 51.4781 48.8924C58.19 48.4216 64.5486 46.4844 70.6362 43.6202C78.2336 40.0449 85.0519 35.2827 91.338 29.6966C91.9719 29.1325 92.5816 28.5391 93.201 27.9604C92.93 27.931 92.7607 28.0192 92.6058 28.132V28.1271Z" fill="#00529A"/>
</g>
<defs>
<clipPath id="clip0_1615_5383">
<rect width="211" height="49" fill="white"/>
</clipPath>
</defs>
</svg>
