<svg width="80" height="75" viewBox="0 0 80 75" fill="none" xmlns="http://www.w3.org/2000/svg">
<g clip-path="url(#clip0_1623_1685)">
<path d="M13.4146 53.099C13.4146 54.4806 13.0878 55.6001 12.4304 56.4575C11.758 57.3149 10.8978 57.9514 9.85348 58.3558C8.79041 58.7676 7.66724 58.9735 6.48397 58.9735H0.26709V58.8013C0.496232 58.7826 0.702835 58.6965 0.879387 58.5355C1.05594 58.3745 1.14609 58.1648 1.14609 57.899V48.3253C1.14609 48.0632 1.05594 47.8498 0.879387 47.6888C0.706591 47.5353 0.503744 47.4492 0.26709 47.4305V47.2507H2.34439C3.54645 47.2695 4.7748 47.2695 6.0332 47.2507C7.00987 47.2507 7.92268 47.3556 8.77539 47.569C9.65063 47.7861 10.4357 48.1231 11.1382 48.5762C11.8519 49.0704 12.4041 49.6732 12.8023 50.3883C13.2117 51.1521 13.4146 52.0507 13.4146 53.0953V53.099ZM3.12197 58.3745C3.56898 58.3745 3.90706 58.382 4.12869 58.3932C5.03775 58.3932 5.7139 58.3857 6.16467 58.3745C7.90014 58.3221 9.21113 57.8204 10.0939 56.8619C10.9804 55.9183 11.4237 54.6903 11.4237 53.1851C11.4237 52.148 11.2095 51.2232 10.7851 50.4108C10.3531 49.6095 9.72576 48.9805 8.89559 48.52C8.06167 48.0782 7.03992 47.8573 5.82659 47.8573H3.11821V58.3745H3.12197Z" fill="#FEFDFD"/>
<path d="M13.4559 47.2582H19.7216C20.3151 47.2582 20.9011 47.2919 21.4871 47.363C22.0619 47.4304 22.584 47.5802 23.0573 47.8086C23.5419 48.0444 23.9175 48.3702 24.188 48.7895C24.4697 49.2238 24.6087 49.8004 24.6087 50.5156C24.5411 51.6088 24.1392 52.3427 23.4104 52.7171C22.6929 53.1027 21.8515 53.3199 20.8861 53.3686C21.0401 53.3686 21.1603 53.3761 21.2392 53.3873C21.7275 53.406 22.2572 53.4622 22.8244 53.5595C23.3015 53.6456 23.6959 53.8516 24.0039 54.1773C24.312 54.503 24.4697 55.0197 24.4697 55.7236V57.4833C24.4697 57.6032 24.4735 57.6968 24.4848 57.7679C24.5035 57.8727 24.5373 57.9551 24.5899 58.0262C24.6463 58.1198 24.7252 58.1535 24.8228 58.1386C24.9656 58.1198 25.0482 58.0375 25.0632 57.8877C25.0858 57.7042 25.0971 57.5695 25.0971 57.4833V56.918H25.2774V57.854C25.2774 58.352 25.1647 58.7039 24.943 58.9098C24.7177 59.1345 24.3721 59.2468 23.8988 59.2468C23.3541 59.2281 22.9822 59.0596 22.7869 58.7301C22.584 58.3932 22.4863 57.9551 22.4863 57.4159V55.6899C22.4863 55.147 22.3511 54.7314 22.0806 54.4431C21.7989 54.1623 21.4571 53.9789 21.0551 53.8927C20.657 53.8141 20.2175 53.7729 19.7366 53.7729H16.307V57.8877C16.307 58.1498 16.3972 58.3632 16.5737 58.5242C16.7465 58.6777 16.9531 58.7751 17.1935 58.8088V58.981H13.4521V58.8088C13.6663 58.79 13.8691 58.6964 14.0644 58.5242C14.241 58.3632 14.3312 58.1535 14.3312 57.8877V48.3327C14.3312 48.0706 14.241 47.8572 14.0644 47.6962C13.8916 47.5427 13.6888 47.4566 13.4521 47.4379V47.2582H13.4559ZM22.6216 50.5156C22.5878 49.5346 22.2347 48.8419 21.5623 48.4376C20.8786 48.037 20.0634 47.846 19.1243 47.861H16.3145V53.1701H19.0567C19.9658 53.1888 20.7772 52.9942 21.4946 52.5935C22.2309 52.1817 22.6065 51.489 22.6253 50.5156H22.6216Z" fill="#FEFDFD"/>
<path d="M31.9149 59.4341C31.5918 59.4341 31.3289 59.3217 31.1223 59.0971C30.8969 58.8912 30.7842 58.6328 30.7842 58.322C30.7842 58.0113 30.8969 57.7567 31.1223 57.532C31.3289 57.3074 31.5918 57.1951 31.9149 57.1951C32.2191 57.1951 32.4821 57.3074 32.7075 57.532C32.9216 57.7604 33.0268 58.0263 33.0268 58.322C33.0268 58.6178 32.9216 58.8837 32.7075 59.0971C32.4821 59.3217 32.2191 59.4341 31.9149 59.4341Z" fill="#FEFDFD"/>
<path d="M42.2751 58.805V58.9772H38.5337V58.805C38.7741 58.7863 38.9845 58.7001 39.1648 58.5391C39.3301 58.3744 39.4164 58.161 39.4164 57.9026V48.329C39.4164 48.0706 39.3338 47.8609 39.1648 47.6925C38.992 47.5389 38.7816 47.4528 38.5337 47.4341V47.2544H42.2751V47.4341C42.0347 47.4678 41.8281 47.5539 41.6553 47.6925C41.4787 47.8535 41.3886 48.0631 41.3886 48.329V53.4172L43.8641 51.3729C45.175 50.3021 46.4748 49.2275 47.7707 48.1492C47.9548 47.9845 48.0562 47.8272 48.0712 47.6775C48.0863 47.5165 47.9398 47.4379 47.6242 47.4379V47.2581H50.4866V47.4379C50.2049 47.4379 49.9044 47.5015 49.5888 47.6251C49.262 47.7748 48.9841 47.9358 48.7624 48.1155C48.7098 48.168 48.6723 48.1979 48.6497 48.2091C48.6422 48.2166 48.6309 48.2241 48.6159 48.2354C48.5971 48.2466 48.5859 48.2541 48.5821 48.2616L44.7543 51.4253C45.468 52.3876 45.9902 53.0989 46.3245 53.5557C47.3538 54.9822 48.4431 56.4087 49.5926 57.8352C50.111 58.4643 50.7608 58.79 51.5497 58.805V58.9772H46.6288V58.805C47.0608 58.7526 47.2824 58.629 47.3012 58.4343C47.32 58.2284 47.2223 57.9775 47.0157 57.6855L43.2142 52.6946L41.3961 54.1885V57.8989C41.3961 58.1685 41.4862 58.3744 41.6628 58.5167C41.8356 58.6702 42.0422 58.7675 42.2826 58.8012L42.2751 58.805Z" fill="#FEFDFD"/>
<path d="M52.793 57.9214L56.9927 48.651L56.1663 46.9923H58.3901L63.8294 57.9551C63.9571 58.1947 64.1149 58.3894 64.3027 58.5391C64.4792 58.7001 64.7009 58.79 64.9563 58.805V58.9772H61.0008V58.805C61.6281 58.7863 61.8235 58.5054 61.5868 57.9551L60.242 55.2481H54.6637C54.5661 55.4652 54.3707 55.8958 54.0815 56.5323C53.7922 57.1725 53.5668 57.663 53.4128 58.0075C53.3077 58.2883 53.3264 58.4905 53.4654 58.6103C53.5969 58.7263 53.796 58.79 54.0589 58.8087V58.9809H51.6436V58.8087C52.0868 58.79 52.4737 58.4905 52.808 57.9064L52.7893 57.9251L52.793 57.9214ZM57.327 49.3548C57.1505 49.7517 56.8424 50.4369 56.4029 51.4141C55.9672 52.3913 55.6291 53.1439 55.385 53.6681L54.9267 54.649H59.9528L57.3233 49.3548H57.327Z" fill="#FEFDFD"/>
<path d="M63.2923 53.1177C63.2923 51.8297 63.6267 50.7327 64.2915 49.8266C64.9527 48.9056 65.8204 48.2017 66.8947 47.7112C67.9803 47.217 69.1223 46.9736 70.3168 46.9736C70.9705 46.9736 71.6316 47.0672 72.289 47.2582C72.3866 47.2769 72.4918 47.3106 72.6083 47.363C73.4196 47.6326 73.8667 47.509 73.9531 46.9924H74.1259C74.1784 47.2207 74.2573 47.5615 74.3625 48.0145C74.4677 48.4675 74.5466 48.8082 74.5992 49.0366C74.6292 49.1527 74.7344 49.602 74.9185 50.3958L74.7457 50.4819C74.1296 49.1639 73.198 48.2803 71.9509 47.8273C70.6962 47.3705 69.3627 47.4079 67.9428 47.9471C66.9886 48.359 66.29 48.9992 65.8467 49.8641C65.4147 50.7065 65.2081 51.65 65.2269 52.6984C65.2457 53.713 65.456 54.6678 65.8655 55.5701C66.3012 56.4986 66.891 57.225 67.631 57.7529C68.3823 58.3033 69.2162 58.5953 70.1328 58.629C72.3265 58.6478 73.8667 57.5882 74.7457 55.4578L74.9185 55.5364C74.5165 56.888 73.8742 57.8578 72.9952 58.4418C72.1162 59.0147 70.9855 59.2843 69.6069 59.2506C68.4161 59.2318 67.338 58.9548 66.3726 58.4156C65.411 57.9064 64.6597 57.1913 64.115 56.2777C63.5628 55.3492 63.2886 54.2971 63.2886 53.1252L63.2923 53.1177Z" fill="#FEFDFD"/>
<path d="M79.197 58.805V58.9772H75.4556V58.805C75.696 58.7863 75.9063 58.7001 76.0866 58.5391C76.2519 58.3744 76.3383 58.161 76.3383 57.9026V48.329C76.3383 48.0706 76.2557 47.8609 76.0866 47.6925C75.9139 47.5389 75.7035 47.4528 75.4556 47.4341V47.2544H79.197V47.4341C78.9566 47.4678 78.7499 47.5539 78.5772 47.6925C78.4006 47.8535 78.3104 48.0631 78.3104 48.329V57.9026C78.3104 58.1722 78.4006 58.3781 78.5772 58.5204C78.7499 58.6739 78.9566 58.7713 79.197 58.805Z" fill="#FEFDFD"/>
<path d="M4.03861 70.3332C4.03861 70.7151 3.95221 71.0521 3.78317 71.3441C3.61038 71.6362 3.38499 71.8608 3.09575 72.0143C2.8065 72.1678 2.48721 72.2464 2.13786 72.2464C1.60445 72.2464 1.16495 72.0705 0.8156 71.7223C0.466252 71.3741 0.293457 70.9098 0.293457 70.3369C0.293457 69.9588 0.376098 69.6218 0.545137 69.3298C0.714176 69.0377 0.935805 68.8168 1.21754 68.6633C1.49927 68.5098 1.81481 68.4349 2.16416 68.4349C2.70132 68.4349 3.14834 68.6109 3.5052 68.9591C3.86206 69.3073 4.03861 69.7678 4.03861 70.3369V70.3332ZM0.920779 70.3332C0.920779 70.5616 0.954587 70.7638 1.01845 70.9435C1.08231 71.1232 1.17246 71.2655 1.28891 71.3741C1.40536 71.4826 1.52932 71.5688 1.67206 71.6249C1.81481 71.6811 1.96882 71.711 2.1341 71.711C2.29939 71.711 2.45716 71.6811 2.60366 71.6249C2.75016 71.5688 2.88539 71.4864 3.00935 71.3778C3.13331 71.2692 3.22722 71.127 3.29859 70.9435C3.36997 70.7638 3.40753 70.5616 3.40753 70.3332C3.40753 70.1048 3.37372 69.9064 3.30235 69.7304C3.23098 69.5544 3.13707 69.4084 3.02062 69.2998C2.90417 69.1912 2.76894 69.1089 2.62244 69.0527C2.47594 68.9966 2.31817 68.9666 2.15664 68.9666C1.99512 68.9666 1.83735 68.9966 1.69085 69.0527C1.54435 69.1089 1.41287 69.1912 1.29642 69.2998C1.17997 69.4084 1.08982 69.5507 1.0222 69.7304C0.954587 69.9064 0.920779 70.1086 0.920779 70.3369V70.3332Z" fill="#FEFDFD"/>
<path d="M5.46239 69.1762C5.5826 68.9628 5.76666 68.7868 6.00708 68.6446C6.24749 68.5023 6.52922 68.4312 6.84851 68.4312C7.35563 68.4312 7.77259 68.6071 8.10692 68.9553C8.44124 69.3035 8.60652 69.7603 8.60652 70.3294C8.60652 70.7038 8.52764 71.0371 8.37362 71.3328C8.21961 71.6286 8.00925 71.8533 7.74254 72.0105C7.47584 72.1678 7.17908 72.2501 6.84851 72.2501C6.51795 72.2501 6.255 72.179 6.01459 72.0367C5.77418 71.8944 5.59011 71.7185 5.46239 71.5088V73.9425H4.8501V68.4985H5.46239V69.18V69.1762ZM7.9792 70.3294C7.9792 69.9101 7.85899 69.5768 7.61858 69.3335C7.37817 69.0901 7.07766 68.9666 6.7208 68.9666C6.36394 68.9666 6.07469 69.0901 5.83052 69.341C5.58636 69.5918 5.46239 69.9213 5.46239 70.3332C5.46239 70.745 5.58636 71.0857 5.83052 71.3366C6.07469 71.5874 6.37145 71.711 6.7208 71.711C7.07014 71.711 7.37441 71.5874 7.61482 71.3366C7.85524 71.0857 7.9792 70.7525 7.9792 70.3294Z" fill="#FEFDFD"/>
<path d="M9.41782 72.1865V67.1993H10.0301V69.0265C10.1503 68.8318 10.3194 68.6858 10.5335 68.5809C10.7476 68.4761 10.988 68.4274 11.2547 68.4274C11.6867 68.4274 12.0436 68.5622 12.3178 68.8355C12.592 69.1088 12.731 69.4982 12.731 70.0074V72.1865H12.1224V70.0973C12.1224 69.7304 12.0285 69.4458 11.8445 69.2511C11.6604 69.0564 11.4087 68.9591 11.0894 68.9591C10.7701 68.9591 10.5072 69.0602 10.3156 69.2623C10.124 69.4645 10.0264 69.7566 10.0264 70.146V72.1902H9.41406L9.41782 72.1865Z" fill="#FEFDFD"/>
<path d="M13.8766 71.1756V68.9965H13.3958V68.4948H13.8766V67.5625H14.4889V68.4948H15.458V68.9965H14.4889V71.1756C14.4889 71.359 14.5264 71.4863 14.6053 71.5575C14.6842 71.6286 14.8157 71.666 15.0035 71.666H15.4543V72.1865H14.8983C14.5565 72.1865 14.301 72.1078 14.1283 71.9506C13.9555 71.7933 13.8691 71.535 13.8691 71.1756H13.8766Z" fill="#FEFDFD"/>
<path d="M15.9691 70.3256C15.9691 69.7603 16.1344 69.3035 16.4687 68.9515C16.803 68.6033 17.22 68.4274 17.7271 68.4274C18.0501 68.4274 18.3319 68.4985 18.5685 68.637C18.8052 68.7756 18.9855 68.9515 19.1019 69.1612V68.491H19.7255V72.1827H19.1019V71.4938C18.9817 71.7072 18.8014 71.8869 18.561 72.0292C18.3206 72.1715 18.0389 72.2426 17.7158 72.2426C17.3928 72.2426 17.0923 72.164 16.8256 72.003C16.5588 71.842 16.3522 71.6174 16.1982 71.3253C16.0442 71.0333 15.9653 70.7 15.9653 70.3219L15.9691 70.3256ZM19.1057 70.3331C19.1057 69.9175 18.9855 69.588 18.7413 69.3372C18.4972 69.0863 18.2004 68.9628 17.8473 68.9628C17.4942 68.9628 17.1974 69.0863 16.9608 69.3297C16.7241 69.5731 16.6002 69.9063 16.6002 70.3256C16.6002 70.745 16.7204 71.0819 16.9608 71.3328C17.2012 71.5837 17.498 71.7072 17.8473 71.7072C18.1966 71.7072 18.4972 71.5837 18.7413 71.3328C18.9855 71.0819 19.1057 70.7487 19.1057 70.3294V70.3331Z" fill="#FEFDFD"/>
<path d="M20.7698 72.1865V67.1993H21.3821V72.1865H20.7698Z" fill="#FEFDFD"/>
<path d="M27.7792 72.1865V70.0972C27.7792 69.7303 27.689 69.4458 27.505 69.2511C27.3209 69.0564 27.073 68.959 26.7612 68.959C26.4494 68.959 26.1864 69.0601 25.9986 69.2661C25.8108 69.472 25.7131 69.7678 25.7131 70.1534V72.1865H25.1046V70.0972C25.1046 69.7303 25.0144 69.4458 24.8304 69.2511C24.6501 69.0564 24.4021 68.959 24.0904 68.959C23.7786 68.959 23.5119 69.0601 23.3241 69.2661C23.1362 69.472 23.0386 69.7678 23.0386 70.1534V72.1865H22.4263V68.4948H23.0386V69.0264C23.1588 68.8317 23.3241 68.6857 23.5269 68.5809C23.7297 68.476 23.9589 68.4274 24.2068 68.4274C24.5186 68.4274 24.7928 68.4985 25.0332 68.637C25.2736 68.7756 25.4502 68.9815 25.5666 69.2511C25.6718 68.989 25.8446 68.7868 26.0813 68.6445C26.3179 68.5023 26.5846 68.4274 26.8776 68.4274C27.1706 68.4274 27.4223 68.4835 27.6439 68.5996C27.8656 68.7157 28.0459 68.8916 28.1774 69.135C28.3088 69.3784 28.3802 69.6704 28.3802 70.0111V72.1902H27.7717L27.7792 72.1865Z" fill="#FEFDFD"/>
<path d="M32.9104 70.3332C32.9104 70.7151 32.824 71.0521 32.655 71.3441C32.4822 71.6362 32.2568 71.8608 31.9676 72.0143C31.6783 72.1678 31.359 72.2464 31.0097 72.2464C30.4763 72.2464 30.0368 72.0705 29.6874 71.7223C29.3381 71.3741 29.1653 70.9098 29.1653 70.3369C29.1653 69.9588 29.2479 69.6218 29.417 69.3298C29.586 69.0377 29.8076 68.8168 30.0894 68.6633C30.3711 68.5098 30.6866 68.4349 31.036 68.4349C31.5732 68.4349 32.0202 68.6109 32.377 68.9591C32.7339 69.3073 32.9104 69.7678 32.9104 70.3369V70.3332ZM29.7926 70.3332C29.7926 70.5616 29.8264 70.7638 29.8903 70.9435C29.9541 71.1232 30.0443 71.2655 30.1607 71.3741C30.2772 71.4826 30.4011 71.5688 30.5439 71.6249C30.6866 71.6811 30.8406 71.711 31.0059 71.711C31.1712 71.711 31.329 71.6811 31.4755 71.6249C31.622 71.5688 31.7572 71.4864 31.8812 71.3778C32.0051 71.2692 32.099 71.127 32.1704 70.9435C32.2418 70.7638 32.2794 70.5616 32.2794 70.3332C32.2794 70.1048 32.2455 69.9064 32.1742 69.7304C32.1028 69.5544 32.0089 69.4084 31.8924 69.2998C31.776 69.1912 31.6408 69.1089 31.4943 69.0527C31.3478 68.9966 31.19 68.9666 31.0285 68.9666C30.8669 68.9666 30.7092 68.9966 30.5627 69.0527C30.4162 69.1089 30.2847 69.1912 30.1682 69.2998C30.0518 69.4084 29.9616 69.5507 29.894 69.7304C29.8264 69.9064 29.7926 70.1086 29.7926 70.3369V70.3332Z" fill="#FEFDFD"/>
<path d="M33.718 72.1865V67.1993H34.3303V72.1865H33.718Z" fill="#FEFDFD"/>
<path d="M38.8946 70.3332C38.8946 70.7151 38.8082 71.0521 38.6391 71.3441C38.4663 71.6362 38.2409 71.8608 37.9517 72.0143C37.6625 72.1678 37.3432 72.2464 36.9938 72.2464C36.4604 72.2464 36.0209 72.0705 35.6716 71.7223C35.3222 71.3741 35.1494 70.9098 35.1494 70.3369C35.1494 69.9588 35.2321 69.6218 35.4011 69.3298C35.5701 69.0377 35.7918 68.8168 36.0735 68.6633C36.3552 68.5098 36.6708 68.4349 37.0201 68.4349C37.5573 68.4349 38.0043 68.6109 38.3612 68.9591C38.718 69.3073 38.8946 69.7678 38.8946 70.3369V70.3332ZM35.7767 70.3332C35.7767 70.5616 35.8105 70.7638 35.8744 70.9435C35.9383 71.1232 36.0284 71.2655 36.1449 71.3741C36.2613 71.4826 36.3853 71.5688 36.528 71.6249C36.6708 71.6811 36.8248 71.711 36.9901 71.711C37.1553 71.711 37.3131 71.6811 37.4596 71.6249C37.6061 71.5688 37.7413 71.4864 37.8653 71.3778C37.9893 71.2692 38.0832 71.127 38.1546 70.9435C38.2259 70.7638 38.2635 70.5616 38.2635 70.3332C38.2635 70.1048 38.2297 69.9064 38.1583 69.7304C38.0869 69.5544 37.993 69.4084 37.8766 69.2998C37.7601 69.1912 37.6249 69.1089 37.4784 69.0527C37.3319 68.9966 37.1741 68.9666 37.0126 68.9666C36.8511 68.9666 36.6933 68.9966 36.5468 69.0527C36.4003 69.1089 36.2688 69.1912 36.1524 69.2998C36.0359 69.4084 35.9458 69.5507 35.8782 69.7304C35.8105 69.9064 35.7767 70.1086 35.7767 70.3369V70.3332Z" fill="#FEFDFD"/>
<path d="M39.4729 70.3256C39.4729 69.7603 39.6382 69.3035 39.9725 68.9515C40.3068 68.6033 40.7238 68.4274 41.2309 68.4274C41.554 68.4274 41.8319 68.4948 42.0723 68.6333C42.3128 68.7718 42.4893 68.9478 42.6058 69.1612V68.491H43.2293V72.2651C43.2293 72.7818 43.0678 73.1974 42.7485 73.5194C42.4292 73.8414 41.9972 74.0023 41.4563 74.0023C40.968 74.0023 40.5623 73.8863 40.2392 73.6579C39.9162 73.4295 39.7246 73.115 39.6645 72.7219H40.2768C40.3444 72.9465 40.4834 73.13 40.6937 73.2648C40.9041 73.3995 41.1595 73.4669 41.46 73.4669C41.8019 73.4669 42.0761 73.3621 42.2902 73.1524C42.5006 72.9428 42.6095 72.647 42.6095 72.2613V71.4863C42.4856 71.7035 42.3052 71.8832 42.0686 72.0255C41.8319 72.1677 41.554 72.2389 41.2347 72.2389C40.9154 72.2389 40.6073 72.1602 40.3406 71.9993C40.0739 71.8383 39.8636 71.6136 39.7096 71.3216C39.5555 71.0295 39.4767 70.6963 39.4767 70.3181L39.4729 70.3256ZM42.6095 70.3331C42.6095 69.9175 42.4893 69.588 42.2451 69.3372C42.001 69.0863 41.7042 68.9628 41.3511 68.9628C40.998 68.9628 40.7013 69.0863 40.4646 69.3297C40.2279 69.5731 40.104 69.9063 40.104 70.3256C40.104 70.745 40.2242 71.0819 40.4646 71.3328C40.705 71.5837 41.0018 71.7072 41.3511 71.7072C41.7005 71.7072 42.001 71.5837 42.2451 71.3328C42.4893 71.0819 42.6095 70.7487 42.6095 70.3294V70.3331Z" fill="#FEFDFD"/>
<path d="M47.5604 68.4948V72.1864H46.9481V71.6398C46.8317 71.8307 46.6664 71.9768 46.456 72.0816C46.2457 72.1864 46.0128 72.2389 45.7611 72.2389C45.3141 72.2389 44.9497 72.1003 44.6642 71.8308C44.3787 71.5612 44.2397 71.168 44.2397 70.6588V68.4985H44.852V70.5802C44.852 70.9471 44.946 71.2279 45.13 71.4226C45.3141 71.6173 45.5695 71.7147 45.8851 71.7147C46.2006 71.7147 46.4711 71.6136 46.6626 71.4114C46.8542 71.2092 46.9481 70.9134 46.9481 70.5278V68.5022H47.5604V68.4948Z" fill="#FEFDFD"/>
<path d="M51.903 71.0483C51.8053 71.4002 51.6062 71.6885 51.3094 71.9132C51.0127 72.1378 50.6408 72.2464 50.2013 72.2464C49.6679 72.2464 49.2284 72.0704 48.8828 71.7222C48.5372 71.374 48.3682 70.9098 48.3682 70.3332C48.3682 69.7566 48.5372 69.296 48.8753 68.9478C49.2134 68.6034 49.6566 68.4312 50.2013 68.4312C50.746 68.4312 51.1592 68.5996 51.4898 68.9329C51.8203 69.2661 51.9818 69.6892 51.9818 70.1984C51.9818 70.3182 51.9743 70.438 51.9631 70.5653H49.003C49.0255 70.9285 49.1495 71.213 49.3749 71.419C49.6003 71.6249 49.8782 71.7297 50.2051 71.7297C50.4718 71.7297 50.6971 71.6698 50.8737 71.5462C51.0502 71.4227 51.1742 71.258 51.2456 71.0483H51.9105H51.903ZM50.1712 68.9516C49.8595 68.9516 49.5965 69.0489 49.3786 69.2474C49.1608 69.4458 49.0368 69.7191 49.003 70.0673H51.3395C51.3395 69.7191 51.2306 69.4458 51.0089 69.2474C50.7873 69.0489 50.5056 68.9478 50.1712 68.9478V68.9516Z" fill="#FEFDFD"/>
<path d="M71.8871 21.4723C68.2885 23.9846 64.4945 26.1524 60.4526 27.8784C55.6256 29.9414 50.6107 31.2781 45.3555 31.5626C40.382 31.8322 35.5325 31.0834 30.8031 29.5446C23.7786 27.2606 17.5016 23.6064 11.6867 19.1135C11.1495 18.6979 11.3787 18.4882 11.7656 18.1924C16.1906 14.804 20.8937 11.8798 26.0137 9.64836C26.6823 9.35632 27.3622 9.08674 28.0346 8.80968C26.224 12.1195 25.6155 15.5491 26.5246 19.1734C27.4449 22.8351 29.6048 25.6058 32.8767 27.4928C37.6022 30.2148 43.6614 29.3611 46.7078 26.8862C46.2758 26.9312 45.8401 26.9574 45.3931 26.9574C45.1789 26.9574 44.9648 26.9499 44.7507 26.9387C44.1234 26.9536 43.4961 26.9237 42.8725 26.8226C39.2062 26.2273 36.4152 23.8498 35.0028 20.8844C34.3191 19.544 33.936 18.0464 33.936 16.4701C33.936 15.5416 34.0675 14.643 34.3154 13.7856C35.2507 10.1463 38.0455 7.1398 41.7681 6.13264C44.0069 5.52984 46.2345 5.82937 48.4508 6.12515C55.2537 7.03497 61.4818 9.56224 67.3569 13.0143C68.1194 13.4636 68.8745 13.9316 69.6182 14.4071C70.8654 15.2533 71.7669 15.8673 71.9209 15.9834C71.9472 16.0021 72.0298 16.0695 72.1576 16.0995C72.2214 16.1144 72.2966 16.1219 72.3829 16.1144C72.0486 15.8037 71.7143 15.4892 71.3762 15.1784H71.3837C71.3499 15.1485 71.3161 15.1185 71.2786 15.0885C71.0945 14.9275 70.9668 14.804 70.9442 14.7815C70.8316 14.6767 70.5085 14.3921 69.6257 13.6658C69.5844 13.6283 69.5431 13.5909 69.498 13.5572C63.7995 8.77972 57.5714 4.8821 50.5318 2.35858C45.5133 0.561403 40.3332 -0.269789 34.999 0.0784129C29.9166 0.407895 25.0859 1.78573 20.473 3.88992C12.8324 7.37194 6.16476 12.2393 0.285959 18.1999C-0.0934392 18.5818 -0.0971957 18.8214 0.285959 19.2033C1.69086 20.5999 3.11454 21.9702 4.62087 23.2619C10.3907 28.1967 16.6978 32.2441 23.8575 34.8911C29.0564 36.8119 34.4243 37.7067 39.9613 37.3248C45.1714 36.9654 50.1074 35.4865 54.833 33.2999C60.7305 30.5704 66.0233 26.9349 70.9029 22.6704C71.395 22.2398 71.8683 21.7868 72.3491 21.345C72.1388 21.3225 72.0073 21.3899 71.8871 21.476V21.4723Z" fill="#FEFDFD"/>
</g>
<defs>
<clipPath id="clip0_1623_1685">
<rect width="80" height="75" fill="white"/>
</clipPath>
</defs>
</svg>
