<svg width="92" height="92" viewBox="0 0 92 92" fill="none" xmlns="http://www.w3.org/2000/svg">
<g clip-path="url(#clip0_1366_2555)">
<mask id="mask0_1366_2555" style="mask-type:alpha" maskUnits="userSpaceOnUse" x="0" y="0" width="93" height="93">
<path d="M46.0036 92.0072C71.4107 92.0072 92.0072 71.4107 92.0072 46.0036C92.0072 20.5965 71.4107 0 46.0036 0C20.5965 0 0 20.5965 0 46.0036C0 71.4107 20.5965 92.0072 46.0036 92.0072Z" fill="#EBF3FE"/>
</mask>
<g mask="url(#mask0_1366_2555)">
<path d="M46.0036 92.0072C71.4107 92.0072 92.0072 71.4107 92.0072 46.0036C92.0072 20.5965 71.4107 0 46.0036 0C20.5965 0 0 20.5965 0 46.0036C0 71.4107 20.5965 92.0072 46.0036 92.0072Z" fill="#EBF3FE"/>
<path d="M45.8739 15.0833C40.5069 14.5531 35.0753 16.8389 31.0625 20.6367C27.0497 24.4345 24.3769 29.6296 22.8721 35.097C21.3674 40.5573 20.9804 46.3041 21.0234 51.9937" stroke="#C14F4F" stroke-linecap="round" stroke-linejoin="round"/>
<path d="M24.5059 66.8698C23.1444 60.7432 22.4493 54.4589 22.4421 48.1674C22.4421 42.7788 22.9437 37.3329 24.5918 32.2166C26.2399 27.1004 29.0847 22.3137 33.1691 18.9888C37.2607 15.664 42.6565 13.9155 47.7656 14.8686C51.6566 15.5923 55.6837 16.7173 58.3063 19.7914C60.9289 22.8655 62.3334 26.8782 63.0356 30.9125C63.7379 34.9539 63.788 39.0742 64.0173 43.173C64.5118 51.9652 65.8661 60.7073 68.0444 69.213L24.4987 66.8555L24.5059 66.8698Z" fill="#C14F4F"/>
<path d="M55.053 60.0552C54.9671 59.0305 55.0315 57.9843 54.9456 56.9668C58.0268 55.1181 60.3556 51.7717 60.7641 48.1029C62.6128 47.1355 64.2394 45.6307 65.1495 43.7103C66.0595 41.7828 66.2028 39.4253 65.2999 37.4977C64.3971 35.5701 62.5913 34.3448 60.5276 34.4594C59.0586 27.5947 53.8922 22.1345 47.4933 19.8271C43.5808 25.445 39.6612 31.0629 35.7487 36.688C35.1826 36.0216 34.4947 34.9754 33.9287 34.309C31.1484 33.9363 28.2105 35.4268 26.7845 37.9276C25.3585 40.4284 25.5162 43.8178 27.1714 46.1681C28.8267 48.5185 31.8864 49.708 34.6166 49.0559C34.6166 52.6961 34.7957 56.4294 34.7957 60.0624C33.6922 60.4278 32.5385 60.6285 31.435 60.9867C34.2153 65.6516 39.2527 68.4605 44.5338 68.396C49.8149 68.3316 54.9671 65.2217 57.6398 60.4923L55.0602 60.0624L55.053 60.0552Z" fill="#FF9A7D"/>
<path d="M44.638 44.2112C44.934 42.984 43.6863 41.6303 41.8512 41.1877C40.0161 40.7451 38.2885 41.3812 37.9925 42.6084C37.6965 43.8357 38.9442 45.1894 40.7793 45.632C42.6144 46.0746 44.342 45.4385 44.638 44.2112Z" fill="#FF7171"/>
<path d="M57.8127 45.3412C59.6446 44.8695 60.8745 43.496 60.5597 42.2735C60.2449 41.0509 58.5046 40.4422 56.6727 40.9139C54.8408 41.3857 53.6109 42.7591 53.9257 43.9817C54.2405 45.2043 55.9808 45.8129 57.8127 45.3412Z" fill="#FF7171"/>
<path d="M60.499 34.3091C61.1654 39.0098 61.3016 43.7964 60.9003 48.5258" stroke="#060305" stroke-linecap="round" stroke-linejoin="round"/>
<path d="M61.2444 39.9125C62.1688 39.1601 63.1003 38.4077 64.0247 37.6553" stroke="#060305" stroke-linecap="round" stroke-linejoin="round"/>
<path d="M29.2854 37.5552C30.6612 38.7232 32.037 39.884 33.4128 41.052" stroke="#060305" stroke-linecap="round" stroke-linejoin="round"/>
<path d="M45.4727 58.5074C48.7402 59.7113 52.5738 59.1022 55.3541 56.9453" stroke="#060305" stroke-linecap="round" stroke-linejoin="round"/>
<path d="M47.4861 19.4043C47.5004 19.8916 47.6079 22.0126 49.3133 23.7395C50.6676 25.1082 52.2441 25.4378 52.8173 25.5309" stroke="#C14F4F" stroke-linecap="round" stroke-linejoin="round"/>
<path d="M47.4791 19.8701C47.6583 20.8948 47.5723 21.7332 47.4433 22.3351C46.6049 26.2404 42.2553 27.8742 41.7466 28.0533" stroke="#C14F4F" stroke-linecap="round" stroke-linejoin="round"/>
<path d="M55.9273 40.2421C56.4813 40.2421 56.9305 39.7769 56.9305 39.2031C56.9305 38.6292 56.4813 38.1641 55.9273 38.1641C55.3732 38.1641 54.9241 38.6292 54.9241 39.2031C54.9241 39.7769 55.3732 40.2421 55.9273 40.2421Z" fill="#060305"/>
<path d="M41.8111 39.9701C42.3651 39.9701 42.8142 39.5049 42.8142 38.9311C42.8142 38.3573 42.3651 37.8921 41.8111 37.8921C41.257 37.8921 40.8079 38.3573 40.8079 38.9311C40.8079 39.5049 41.257 39.9701 41.8111 39.9701Z" fill="#060305"/>
<path d="M49.772 38.7803C50.2091 41.1879 50.6533 43.5884 51.0904 45.9961C50.381 46.1036 49.6645 46.2182 48.9551 46.3257" stroke="#060305" stroke-linecap="round" stroke-linejoin="round"/>
<path d="M43.4734 47.4722C43.6955 47.6871 46.0387 49.9013 48.7402 49.1919C49.4711 48.9985 50.0515 48.6402 50.4742 48.2891" stroke="#060305" stroke-linecap="round" stroke-linejoin="round"/>
<path d="M37.8628 34.8034C39.6184 33.8145 41.0085 33.7142 42.0189 33.8503C42.0619 33.8503 42.0977 33.8647 42.1192 33.8647C43.1367 34.0295 44.4194 34.5454 45.7594 35.9714" stroke="#060305" stroke-linecap="round" stroke-linejoin="round"/>
<path d="M51.2554 36.5376C51.7785 36.0073 52.8963 35.0399 54.6017 34.5527C57.0882 33.8433 59.1734 34.6315 59.8183 34.9038" stroke="#060305" stroke-linecap="round" stroke-linejoin="round"/>
<path d="M90.8671 80.4776C86.3456 71.0332 77.2309 64.3548 66.9553 62.3269C62.9282 61.5315 58.9226 61.0013 54.8955 60.2059C52.1869 62.5634 48.5969 63.8675 45.0069 63.7959C41.4169 63.7314 37.8627 62.3843 35.2472 59.9336C30.7257 61.2449 26.2042 62.5562 21.6826 63.8675C13.0623 66.3684 5.85366 73.9855 4.49219 82.8637C16.8673 92.0931 32.1517 96.9084 47.5865 96.672C63.0214 96.4355 78.7858 90.0867 90.8671 80.4776Z" fill="#BD77B2"/>
<path d="M31.2058 61.5313C33.6708 67.1635 39.6828 71.0401 45.8309 70.9613C51.9791 70.8825 57.8908 66.8482 60.2053 61.1587" stroke="#060305" stroke-linecap="round" stroke-linejoin="round"/>
<path d="M46.5188 67.1494C47.2569 76.0563 47.9878 84.9704 48.7258 93.8774" stroke="#060305" stroke-linecap="round" stroke-linejoin="round"/>
<path d="M21.955 64.061C21.5179 72.323 21.0736 80.5779 20.6365 88.8399" stroke="#060305" stroke-linecap="round" stroke-linejoin="round"/>
<path d="M70.2803 63.1294C72 70.94 73.727 78.7506 75.4467 86.5611" stroke="#060305" stroke-linecap="round" stroke-linejoin="round"/>
</g>
</g>
<defs>
<clipPath id="clip0_1366_2555">
<rect width="92" height="92" fill="white"/>
</clipPath>
</defs>
</svg>
