<svg width="92" height="92" viewBox="0 0 92 92" fill="none" xmlns="http://www.w3.org/2000/svg">
<g clip-path="url(#clip0_1366_2487)">
<path d="M46.0036 92.0072C71.4107 92.0072 92.0072 71.4107 92.0072 46.0036C92.0072 20.5965 71.4107 0 46.0036 0C20.5965 0 0 20.5965 0 46.0036C0 71.4107 20.5965 92.0072 46.0036 92.0072Z" fill="#B4D2FE"/>
<mask id="mask0_1366_2487" style="mask-type:luminance" maskUnits="userSpaceOnUse" x="0" y="0" width="93" height="93">
<path d="M46.0036 92.0072C71.4107 92.0072 92.0072 71.4107 92.0072 46.0036C92.0072 20.5965 71.4107 0 46.0036 0C20.5965 0 0 20.5965 0 46.0036C0 71.4107 20.5965 92.0072 46.0036 92.0072Z" fill="white"/>
</mask>
<g mask="url(#mask0_1366_2487)">
<path d="M57.5624 60.3421C57.4979 56.3222 57.4119 52.4384 57.3403 48.4256C50.0313 47.6804 42.8585 46.928 35.5495 46.1899C35.1769 50.2385 34.8043 54.28 34.4316 58.3286C37.4484 61.0874 41.5113 62.8859 45.5886 63.1152C49.6658 63.3374 54.259 62.7641 57.5553 60.3493L57.5624 60.3421Z" fill="#FF9A7D"/>
<path d="M62.7924 27.3657C64.8489 27.1364 66.8983 28.5337 67.7152 30.4326C68.5321 32.3387 68.2239 34.603 67.2064 36.4088C66.1889 38.2145 64.5265 39.5832 62.6992 40.572L62.7924 27.3657Z" fill="#FF9A7D"/>
<path d="M62.9355 33.2416L65.594 30.9629" stroke="#060305" stroke-linecap="round" stroke-linejoin="round"/>
<path d="M62.6356 42.7576C63.3952 36.4948 63.1587 28.4262 62.8864 24.0552C63.3235 22.5504 63.4525 20.8736 63.0799 19.3545C62.5496 17.1833 61.5034 15.1411 60.0488 13.4428C59.0241 12.239 57.7988 11.2143 56.466 10.3544C52.3099 7.66013 47.0861 6.66411 42.2278 7.63864C37.3695 8.61317 32.9339 11.5439 30.1321 15.6284C27.3304 19.7128 26.1982 24.9079 27.0437 29.7877C27.7388 33.822 28.9641 37.412 30.6266 41.1525C32.289 44.8929 34.6035 48.4184 37.7994 50.9766C40.9953 53.5347 45.1514 55.0467 49.2143 54.5523C52.3815 54.1653 55.5918 53.1621 58.0281 51.0912C60.4573 49.0275 62.2487 45.9176 62.6356 42.7504V42.7576Z" fill="#BF7D51"/>
<path d="M61.8766 25.732C61.8766 26.5489 61.9196 27.5879 61.9626 28.6628C62.1345 32.5824 61.332 36.4877 59.5836 39.9989L59.5549 40.0562C53.9585 38.8309 48.3621 38.8595 42.8087 40.2425C42.4791 40.049 42.1567 39.8627 41.8342 39.6693C39.0468 38.0068 37.1407 35.1907 36.5889 31.9948L35.4854 25.6389C35.0698 23.2384 35.9154 20.7161 37.241 18.6738C38.5738 16.6316 40.7952 15.1197 43.2243 14.9334C45.6535 14.7542 48.2116 16.0512 49.2363 18.2654C49.4441 16.4668 51.429 14.8832 53.2133 14.5679C54.9975 14.2526 56.8678 14.962 58.2078 16.1802C59.5477 17.3984 61.8336 21.2678 61.8694 25.732H61.8766Z" fill="#FF9A7D"/>
<path d="M54.6956 35.0402C54.9924 35.0402 55.2331 34.7996 55.2331 34.5028C55.2331 34.2059 54.9924 33.9653 54.6956 33.9653C54.3988 33.9653 54.1582 34.2059 54.1582 34.5028C54.1582 34.7996 54.3988 35.0402 54.6956 35.0402Z" fill="#EA7E73"/>
<path d="M58.8089 35.2909C59.1057 35.2909 59.3463 35.0503 59.3463 34.7535C59.3463 34.4567 59.1057 34.2161 58.8089 34.2161C58.5121 34.2161 58.2715 34.4567 58.2715 34.7535C58.2715 35.0503 58.5121 35.2909 58.8089 35.2909Z" fill="#EA7E73"/>
<path d="M56.4866 37.3258C56.7835 37.3258 57.0241 37.0852 57.0241 36.7884C57.0241 36.4916 56.7835 36.251 56.4866 36.251C56.1898 36.251 55.9492 36.4916 55.9492 36.7884C55.9492 37.0852 56.1898 37.3258 56.4866 37.3258Z" fill="#EA7E73"/>
<path d="M40.9163 36.2511C41.2131 36.2511 41.4538 36.0105 41.4538 35.7137C41.4538 35.4169 41.2131 35.1763 40.9163 35.1763C40.6195 35.1763 40.3789 35.4169 40.3789 35.7137C40.3789 36.0105 40.6195 36.2511 40.9163 36.2511Z" fill="#EA7E73"/>
<path d="M44.4769 35.2335C44.7737 35.2335 45.0143 34.9929 45.0143 34.6961C45.0143 34.3993 44.7737 34.1587 44.4769 34.1587C44.1801 34.1587 43.9395 34.3993 43.9395 34.6961C43.9395 34.9929 44.1801 35.2335 44.4769 35.2335Z" fill="#EA7E73"/>
<path d="M46.4417 36.7887C46.7385 36.7887 46.9791 36.5481 46.9791 36.2513C46.9791 35.9545 46.7385 35.7139 46.4417 35.7139C46.1449 35.7139 45.9043 35.9545 45.9043 36.2513C45.9043 36.5481 46.1449 36.7887 46.4417 36.7887Z" fill="#EA7E73"/>
<path d="M43.4027 38.3219C43.6995 38.3219 43.9401 38.0813 43.9401 37.7845C43.9401 37.4877 43.6995 37.2471 43.4027 37.2471C43.1058 37.2471 42.8652 37.4877 42.8652 37.7845C42.8652 38.0813 43.1058 38.3219 43.4027 38.3219Z" fill="#EA7E73"/>
<path d="M33.7866 30.3323C32.8909 29.4223 31.9952 28.5194 31.0995 27.6094C28.0612 27.7742 25.109 29.7591 24.1702 32.5035C23.2315 35.248 24.2419 38.4869 26.5994 40.3069C28.9569 42.127 32.5183 42.4136 35.1696 40.9948L33.7866 30.3323Z" fill="#FF9A7D"/>
<path d="M27.2793 31.708C28.7124 32.5536 30.1456 33.3919 31.5787 34.2375" stroke="#060305" stroke-linecap="round" stroke-linejoin="round"/>
<path d="M42.5436 32.7757C43.1372 32.7757 43.6185 32.2945 43.6185 31.7008C43.6185 31.1072 43.1372 30.626 42.5436 30.626C41.95 30.626 41.4688 31.1072 41.4688 31.7008C41.4688 32.2945 41.95 32.7757 42.5436 32.7757Z" fill="#060305"/>
<path d="M56.6959 32.7757C57.2896 32.7757 57.7708 32.2945 57.7708 31.7008C57.7708 31.1072 57.2896 30.626 56.6959 30.626C56.1023 30.626 55.6211 31.1072 55.6211 31.7008C55.6211 32.2945 56.1023 32.7757 56.6959 32.7757Z" fill="#060305"/>
<path d="M50.2608 31.1421C51.6581 33.1341 52.3532 35.6063 52.2098 38.0355C51.3643 38.1644 50.4901 38.2361 49.6445 38.3651" stroke="#060305" stroke-linecap="round" stroke-linejoin="round"/>
<path d="M39.2617 28.2902C39.921 27.1652 41.2251 26.4558 42.5221 26.5059C43.8191 26.5561 45.0659 27.373 45.632 28.5481" stroke="#060305" stroke-linecap="round" stroke-linejoin="round"/>
<path d="M54.3164 28.4477C54.7535 27.4373 55.7854 26.7136 56.8817 26.6419C57.9781 26.5703 59.0959 27.1507 59.662 28.0894" stroke="#060305" stroke-linecap="round" stroke-linejoin="round"/>
<path d="M46.5352 40.9448C46.7286 41.7617 47.3735 42.4639 48.1761 42.7147C48.9786 42.9655 49.9102 42.7721 50.5408 42.2203" stroke="#060305" stroke-linecap="round" stroke-linejoin="round"/>
<path d="M91.6063 78.1702C88.1667 68.3317 78.923 60.8149 68.626 58.9948C68.3895 58.9518 65.6809 58.5792 62.1984 58.1278C60.1132 57.8627 58.4507 57.6548 57.5192 57.5474C55.8711 58.7154 52.668 60.6429 48.211 61.2449C41.3391 62.1692 36.1082 59.3245 34.4386 58.3284C31.5508 58.2568 27.5165 58.5721 23.1526 60.3205C11.4941 64.9925 6.9654 76.1064 6.01953 78.5929C18.8604 86.167 32.5182 94.3144 47.4371 94.2284C62.356 94.1424 78.8514 85.8947 91.6063 78.1702Z" fill="#49497C"/>
<path d="M34.4395 58.3213C36.0302 59.2958 40.5231 61.7608 46.6641 61.3882C52.1315 61.0514 55.958 58.6509 57.5129 57.5474" stroke="white" stroke-linecap="round" stroke-linejoin="round"/>
<path d="M72.8544 60.5068C71.7652 67.995 71.9659 75.6766 73.4492 83.1002" stroke="#897A85" stroke-linecap="round" stroke-linejoin="round"/>
</g>
</g>
<defs>
<clipPath id="clip0_1366_2487">
<rect width="92" height="92" fill="white"/>
</clipPath>
</defs>
</svg>
