<svg width="92" height="92" viewBox="0 0 92 92" fill="none" xmlns="http://www.w3.org/2000/svg">
<g clip-path="url(#clip0_1366_2520)">
<path d="M46.0036 92.0072C71.4107 92.0072 92.0072 71.4107 92.0072 46.0036C92.0072 20.5965 71.4107 0 46.0036 0C20.5965 0 0 20.5965 0 46.0036C0 71.4107 20.5965 92.0072 46.0036 92.0072Z" fill="#D9E8FE"/>
<mask id="mask0_1366_2520" style="mask-type:luminance" maskUnits="userSpaceOnUse" x="0" y="0" width="93" height="93">
<path d="M46.0036 92.0072C71.4107 92.0072 92.0072 71.4107 92.0072 46.0036C92.0072 20.5965 71.4107 0 46.0036 0C20.5965 0 0 20.5965 0 46.0036C0 71.4107 20.5965 92.0072 46.0036 92.0072Z" fill="white"/>
</mask>
<g mask="url(#mask0_1366_2520)">
<path d="M89.4776 77.2314C86.6042 72.2584 83.3367 67.3213 78.6432 64.0108C72.0651 59.3746 63.7242 58.4717 55.7059 57.7981C53.506 61.0155 49.2997 62.42 45.416 62.0904C41.5322 61.7607 37.6197 59.5107 34.3522 57.3897C21.7549 57.2607 9.47297 65.4797 4.78662 77.1813C16.094 86.8979 33.5209 97.6966 48.3969 96.7507C63.2728 95.7977 76.0062 83.6304 89.4705 77.2314H89.4776Z" fill="#FFC200"/>
<path d="M31.02 57.5044C33.4205 63.2871 39.0814 67.0419 45.2224 66.9344C50.9262 66.8413 56.1357 63.4376 58.615 58.1923" fill="#F9CBBD"/>
<path d="M31.02 57.5044C33.4205 63.2871 39.0814 67.0419 45.2224 66.9344C50.9262 66.8413 56.1357 63.4376 58.615 58.1923" stroke="#060305" stroke-linecap="round" stroke-linejoin="round"/>
<path d="M42.2847 66.7554C43.338 68.0524 44.3842 69.3494 45.4376 70.6464C46.3763 69.3136 47.315 67.9808 48.2537 66.6479" fill="#F9CBBD"/>
<path d="M42.2847 66.7554C43.338 68.0524 44.3842 69.3494 45.4376 70.6464C46.3763 69.3136 47.315 67.9808 48.2537 66.6479" stroke="#060305" stroke-linecap="round" stroke-linejoin="round"/>
<path d="M34.603 18.9316C34.603 18.9316 25.388 24.2342 29.8808 35.8856C34.3737 47.537 48.6692 28.1682 34.603 18.9316Z" fill="#EDE8E8"/>
<path d="M67.5365 37.6842C67.2355 39.4398 66.2682 41.0377 65.0213 42.3132C64.5699 42.7718 64.0755 43.1803 63.5667 43.5672C63.3159 47.6087 62.1837 50.9909 59.3175 53.3555C58.3644 54.1366 57.2251 54.8102 55.8636 55.3619C55.9353 56.5872 55.7418 57.7911 55.8063 59.0092C53.2052 62.6064 49.2354 64.8564 44.807 64.5913C42.1987 64.4337 39.6262 63.4806 37.5123 61.9257C36.0362 60.8508 34.7822 59.475 33.8937 57.8771C33.9653 56.0498 34.0657 54.2584 34.166 52.467C34.2735 50.4678 34.3881 48.4757 34.4669 46.4263C31.5362 46.6126 28.4908 45.4446 26.6134 43.1874C24.7431 40.9231 24.1842 37.5696 25.4454 34.9183C26.7065 32.267 29.8307 30.5615 32.7113 31.1563C33.1771 31.9588 33.5856 32.7901 34.0513 33.5926C35.6636 31.5217 36.8388 28.9636 36.8961 26.341C36.9606 23.7183 36.158 21.0814 34.6389 18.9317C37.6915 15.7573 42.0769 14.0447 46.4551 14.0447H46.4623C48.5403 14.0447 50.6183 14.4316 52.5531 15.227C55.835 16.5813 58.2999 19.1108 59.991 22.1777C61.4027 24.7215 62.2769 27.6379 62.6567 30.5615C62.6782 30.7837 62.7068 30.9986 62.7355 31.2208C64.011 31.1921 65.3223 31.7439 66.1965 32.6897C67.4075 34.0011 67.8374 35.9215 67.5365 37.6842Z" fill="#F9CBBD"/>
<path d="M59.991 22.1777C59.7832 22.5288 59.5181 22.8584 59.2028 23.1379C57.6406 24.5639 54.9105 24.5997 53.4989 23.0233C52.9256 22.3783 52.51 21.4826 51.686 21.239C50.5323 20.9094 49.5363 22.0487 48.4399 22.5432C46.8133 23.2812 44.7209 22.3927 43.8969 20.8091C43.0657 19.2255 43.4168 17.1832 44.5131 15.7716C45.0506 15.0837 45.7098 14.5104 46.455 14.0447H46.4622C48.5402 14.0447 50.6183 14.4316 52.553 15.227C55.8349 16.5813 58.2999 19.1108 59.991 22.1777Z" fill="#F9CBBD"/>
<path d="M63.5667 41.912V43.5672C63.3159 47.6087 62.1837 50.9908 59.3175 53.3555C55.3333 52.5028 56.2864 48.1819 58.2641 48.1819C60.6718 48.1819 61.1662 45.7384 59.167 45.1867C57.1606 44.6421 58.4504 39.2248 63.5667 41.912Z" fill="#F9CBBD"/>
<path d="M37.6054 58.9805C37.8848 59.2815 37.9995 59.6971 38.021 60.1055C38.0568 60.7576 37.8633 61.381 37.5122 61.9256C36.0361 60.8508 34.7821 59.475 33.8936 57.877C33.9652 56.0498 34.0655 54.2584 34.1659 52.4669C34.8323 52.3308 35.5417 52.3881 36.1651 52.6604C37.3187 53.1548 38.1428 54.3372 38.2073 55.584C38.2789 56.838 37.591 58.0992 36.4947 58.7154C36.8601 58.5434 37.3259 58.6867 37.6054 58.9805Z" fill="#F9CBBD"/>
<path d="M60.4924 34.0943C61.3165 33.1484 62.1405 32.1954 62.9574 31.2495" stroke="#060305" stroke-linecap="round" stroke-linejoin="round"/>
<path d="M34.3235 33.3489C36.7383 33.356 39.0743 33.8648 40.0345 34.5169" stroke="#060305" stroke-linecap="round" stroke-linejoin="round"/>
<path d="M30.4253 37.7917L30.8481 39.8125" stroke="#060305" stroke-linecap="round" stroke-linejoin="round"/>
<path d="M45.5164 55.9996C48.9989 56.8309 52.7322 56.5586 56.0571 55.2329" stroke="#060305" stroke-linecap="round" stroke-linejoin="round"/>
<path d="M53.5417 34.1086C53.0473 32.9908 52.0943 32.1954 51.0409 32.1094C50.0377 32.0306 49.1707 32.611 48.9987 32.7328C48.6261 32.9836 48.3824 33.2559 48.1818 33.4852C47.673 34.0584 47.3793 34.6174 47.2073 35.0115" stroke="#060305" stroke-linecap="round" stroke-linejoin="round"/>
<path d="M43.4239 40.6652C45.83 40.6652 47.7806 38.9745 47.7806 36.8889C47.7806 34.8033 45.83 33.1125 43.4239 33.1125C41.0177 33.1125 39.0671 34.8033 39.0671 36.8889C39.0671 38.9745 41.0177 40.6652 43.4239 40.6652Z" stroke="#060305" stroke-linecap="round" stroke-linejoin="round"/>
<path d="M57.0816 40.9159C59.4877 40.9159 61.4383 39.2252 61.4383 37.1396C61.4383 35.054 59.4877 33.3633 57.0816 33.3633C54.6754 33.3633 52.7249 35.054 52.7249 37.1396C52.7249 39.2252 54.6754 40.9159 57.0816 40.9159Z" stroke="#060305" stroke-linecap="round" stroke-linejoin="round"/>
<path d="M42.7645 37.7488C43.3582 37.7488 43.8394 37.2676 43.8394 36.674C43.8394 36.0803 43.3582 35.5991 42.7645 35.5991C42.1709 35.5991 41.6897 36.0803 41.6897 36.674C41.6897 37.2676 42.1709 37.7488 42.7645 37.7488Z" fill="#060305"/>
<path d="M57.526 37.7488C58.1196 37.7488 58.6009 37.2676 58.6009 36.674C58.6009 36.0803 58.1196 35.5991 57.526 35.5991C56.9324 35.5991 56.4512 36.0803 56.4512 36.674C56.4512 37.2676 56.9324 37.7488 57.526 37.7488Z" fill="#060305"/>
<path d="M49.7081 44.1475C48.2033 44.6635 46.462 44.4055 45.165 43.4883C44.9931 44.3553 45.1364 45.2869 45.8315 45.8458C46.5265 46.4047 47.5297 46.5337 48.3394 46.1754C49.1492 45.8171 49.6508 45.0361 49.7081 44.1475Z" fill="white"/>
<path d="M49.3713 42.1844C50.2455 42.127 51.1126 42.0697 51.9868 42.0195C51.7288 39.5761 51.4136 36.9606 51.1556 34.5171" stroke="#060305" stroke-linecap="round" stroke-linejoin="round"/>
<path d="M40.0344 32.0234C40.8943 31.271 42.0623 30.8841 43.2016 30.9701C44.341 31.056 45.4373 31.6221 46.1682 32.4892" stroke="#EFEAEE" stroke-linecap="round" stroke-linejoin="round"/>
<path d="M54.6096 32.6755C55.3548 31.7869 56.4727 31.2137 57.6335 31.1349C58.7944 31.056 59.9767 31.4645 60.8366 32.2455" stroke="#EFEAEE" stroke-linecap="round" stroke-linejoin="round"/>
<path d="M33.2772 90.6743C31.8154 79.6105 28.8918 57.4829 28.8918 57.4829L21.0669 59.4965C21.0669 59.4965 24.5924 81.4736 26.4196 92.5517L33.2772 90.6743Z" fill="#060305"/>
<path d="M30.9054 73.5198C28.4046 73.8781 25.911 74.2363 23.4102 74.5946C24.1196 76.1854 25.8895 77.2316 27.6164 77.0381C29.3433 76.8446 30.5687 75.2252 30.9054 73.5198Z" stroke="white" stroke-linecap="round" stroke-linejoin="round"/>
<path d="M61.7466 88.9618C62.112 78.5645 62.4846 68.1742 62.8501 57.7769C65.4942 58.3788 67.7872 58.5722 70.4385 59.1742C70.1806 68.7833 69.9584 78.5286 69.7005 88.1378L61.7466 88.9618Z" fill="#060305"/>
<path d="M70.0228 73.7348C67.4074 73.6559 64.7991 73.5771 62.1836 73.4983C62.6422 75.2037 64.2115 76.7157 65.9742 76.8088C67.737 76.902 69.3923 75.3829 70.03 73.7348H70.0228Z" stroke="white" stroke-linecap="round" stroke-linejoin="round"/>
</g>
</g>
<defs>
<clipPath id="clip0_1366_2520">
<rect width="92" height="92" fill="white"/>
</clipPath>
</defs>
</svg>
